PathFileType	4	(X/Y/Z)	/Users/niels/Desktop/University/Third Semester/Perception and Action/Exam/Gymnastics Motion Tracking/Code for Gym Tracking/Analyzed Data/Webcam_Backflip/id5_5_trajectory_Sports2D/id5_5_trajectory_Sports2D_px_person00.trc
DataRate	CameraRate	NumFrames	NumMarkers	Units	OrigDataRate	OrigDataStartFrame	OrigNumFrames
29.774436090225564	29.774436090225564	7	22	m	29.774436090225564	66	133
Frame#	Time	Hip			RHip			RKnee			RAnkle			RBigToe			RSmallToe			RHeel			LHip			LKnee			LAnkle			LBigToe			LSmallToe			LHeel			Neck			Head			Nose			RShoulder			RElbow			RWrist			LShoulder			LElbow			LWrist		
		X1	Y1	Z1	X2	Y2	Z2	X3	Y3	Z3	X4	Y4	Z4	X5	Y5	Z5	X6	Y6	Z6	X7	Y7	Z7	X8	Y8	Z8	X9	Y9	Z9	X10	Y10	Z10	X11	Y11	Z11	X12	Y12	Z12	X13	Y13	Z13	X14	Y14	Z14	X15	Y15	Z15	X16	Y16	Z16	X17	Y17	Z17	X18	Y18	Z18	X19	Y19	Z19	X20	Y20	Z20	X21	Y21	Z21	X22	Y22	Z22
66	2.216666666666667	0.7195128177788631	-0.42843586396017724	0.0	0.7054043823852498	-0.42348082303096723	0.0	0.6915944241155367	-0.5372664838949139	0.0	0.6706708984966161	-0.659444351026132	0.0	0.709939821151289	-0.6935080303744882	0.0	0.6945075910289702	-0.6918740148437805	0.0	0.6613787317208222	-0.6738960992051107	0.0	0.7357325847936191	-0.42848943240307186	0.0	0.7164918264647924	-0.5417872371068483	0.0	0.6905089788225238	-0.6577428179173297	0.0	0.7235134225434878	-0.6943930557746844	0.0	0.7250680308522546	-0.6885780137017439	0.0	0.6810978173312436	-0.6738920206029031	0.0	0.7379575154924349	-0.25886838341931495	0.0	0.7608500056554555	-0.18087597999667848	0.0	0.775589140909969	-0.22691027614078899	0.0	0.7100573228005452	-0.27188355117709395	0.0	0.6888140768931728	-0.3395352861572609	0.0	0.722592205948098	-0.39853181748156813	0.0	0.7521944142817953	-0.2887811380883496	0.0	0.7562587989887825	-0.3678695699387744	0.0	0.7909574385719033	-0.42612536993278427	0.0
67	2.250252525252525	0.7252388558899446	-0.43236566659137854	0.0	0.7111439788395482	-0.4275916748240775	0.0	0.6980768291005314	-0.5423663422043069	0.0	0.6781805851233426	-0.6654935066134631	0.0	0.7174477705516831	-0.6989393915326336	0.0	0.702716413007983	-0.6974652122518692	0.0	0.6689250951875996	-0.6796123726048271	0.0	0.7413233935516407	-0.432356482829479	0.0	0.7232119580462877	-0.5465345682392371	0.0	0.6990807732498189	-0.663528629337922	0.0	0.7337334119894598	-0.6998785691171147	0.0	0.7350729202954237	-0.6941553409163854	0.0	0.6903843983182061	-0.6794896573100149	0.0	0.7433014986597863	-0.2617228869952631	0.0	0.7664613219008725	-0.18330835979523924	0.0	0.781437980763767	-0.22988534893802395	0.0	0.7156126502454349	-0.27556520095962267	0.0	0.6962244749381629	-0.3444059359742561	0.0	0.7295059563251524	-0.4050868247480571	0.0	0.7568385497606638	-0.2914396448593158	0.0	0.7598609450693671	-0.3709950513109934	0.0	0.7946812203048199	-0.43025326236675954	0.0
68	2.283838383838384	0.7312655484525288	-0.44017956518329643	0.0	0.7169718913599444	-0.43570554448095206	0.0	0.7047281469348651	-0.5511839741431204	0.0	0.6860595496200933	-0.6754687115994122	0.0	0.7250314427873322	-0.7082982511770877	0.0	0.7109258783876974	-0.7070861045892453	0.0	0.6769143018539237	-0.6893809079033126	0.0	0.747320088372457	-0.44000323327993895	0.0	0.7301542032628133	-0.5549262742433473	0.0	0.7076603242947266	-0.6731208068748106	0.0	0.7440042218867615	-0.7089747882523708	0.0	0.7451378954959071	-0.7033670115604256	0.0	0.6997807734564538	-0.68909607807148	0.0	0.748541404795332	-0.26832318722905074	0.0	0.77247336243519	-0.18931539187617744	0.0	0.7872152947404999	-0.23645783316124036	0.0	0.7209364166970189	-0.282961110412352	0.0	0.703431779057814	-0.3530646612994491	0.0	0.7360793749673838	-0.41546559922418813	0.0	0.7617272153315614	-0.29768895978182647	0.0	0.7637346912555019	-0.3779388616364339	0.0	0.7983122767881285	-0.4380843235717072	0.0
69	2.3174242424242424	0.737517539047462	-0.4518661499405344	0.0	0.7228628117757065	-0.44779049768446516	0.0	0.7114942929666669	-0.5639036800467162	0.0	0.6944150308777729	-0.689645248112921	0.0	0.7329596636632797	-0.7219387540509897	0.0	0.7192252534504182	-0.7210665408486537	0.0	0.6853672334223297	-0.703682836049166	0.0	0.7537328709880988	-0.4513905778595231	0.0	0.7372714967660764	-0.5671442064813252	0.0	0.7163454569215301	-0.6867899983300542	0.0	0.754338827686153	-0.7220145414104313	0.0	0.7553148359096844	-0.7164888806603267	0.0	0.7093386053166174	-0.7030406479413168	0.0	0.7537040094807329	-0.27866818917272734	0.0	0.7787146235864041	-0.19899848195975983	0.0	0.7929267949585056	-0.2465412749396736	0.0	0.7260367096231348	-0.29417823688474504	0.0	0.7103155238424744	-0.3656843694962939	0.0	0.7421256775489805	-0.42994529297215	0.0	0.7668024328197602	-0.3075843225409292	0.0	0.7679014832997495	-0.388796369435888	0.0	0.8019549079832634	-0.44981718605054244	0.0
70	2.351010101010101	0.7438979517087515	-0.467468537105063	0.0	0.7288173620098629	-0.46387472065182184	0.0	0.7183140335508792	-0.5807867457719051	0.0	0.7032834395544728	-0.7083810536223599	0.0	0.7416476831593385	-0.7402284659060867	0.0	0.7278670279456657	-0.7398011382101493	0.0	0.6941927348113133	-0.723179006256219	0.0	0.7605031082488968	-0.46662304449521547	0.0	0.7444755068825183	-0.5834504345231166	0.0	0.7252391819591216	-0.7048993352241801	0.0	0.7648211426130986	-0.7393939618279061	0.0	0.7657242952914962	-0.7339188142635668	0.0	0.719087221292432	-0.7216950810920917	0.0	0.758839826552042	-0.2928438011835804	0.0	0.785015797268986	-0.2125399146385428	0.0	0.7986116238555261	-0.2601784765255178	0.0	0.7309850391576115	-0.30939155007811797	0.0	0.7168021594345321	-0.3824612173734152	0.0	0.7475413213031508	-0.44884640788402236	0.0	0.7719662000199238	-0.3212461073269907	0.0	0.7722925093330821	-0.4035560713446239	0.0	0.8056103239719936	-0.4654998108745422	0.0
71	2.3845959595959596	0.7503381453376776	-0.48715657638853055	0.0	0.7348571438213087	-0.4841620153291671	0.0	0.7251781966849556	-0.6021606716574901	0.0	0.7126242770570493	-0.7321088107258236	0.0	0.7515514552843048	-0.7635199140246557	0.0	0.7372281310906716	-0.7637248880259827	0.0	0.7031887246298767	-0.7486699312867777	0.0	0.767504351835445	-0.48602447366700025	0.0	0.7516809614762765	-0.6042386525517892	0.0	0.7344123709962788	-0.727927091287762	0.0	0.7755576043163733	-0.7615859412318666	0.0	0.7764213722955121	-0.7562144918143238	0.0	0.7290057981632744	-0.7454925512576124	0.0	0.7640177670706138	-0.31104921465273266	0.0	0.7912508610398072	-0.23022430526297633	0.0	0.8043680522210065	-0.27769718881904915	0.0	0.7359250295827551	-0.3288268802728591	0.0	0.722886130229926	-0.4036336477519256	0.0	0.7523253120887	-0.4724630344170075	0.0	0.7772094891301888	-0.338963645188171	0.0	0.7768891605482479	-0.42233816471259356	0.0	0.8092442794538999	-0.4852478210951696	0.0
72	2.4181818181818184	0.756808233248608	-0.5112863265786307	0.0	0.7410368016774862	-0.5090594321370258	0.0	0.7321777782649389	-0.6284930281911137	0.0	0.7223451790284133	-0.7612900345109372	0.0	0.7628910067091076	-0.7922295430839699	0.0	0.7475529054265433	-0.7932690691589482	0.0	0.7121299359202846	-0.7808722974088251	0.0	0.7745194892759564	-0.5101017671139279	0.0	0.7588222519011358	-0.6300537476412373	0.0	0.7438864694438263	-0.7563822899034817	0.0	0.7865866185685535	-0.7891647597328066	0.0	0.7872859179944771	-0.7840361558232235	0.0	0.7390098992771488	-0.7748740770864228	0.0	0.7693462039803616	-0.333595843004381	0.0	0.7973419282346172	-0.2524098539496969	0.0	0.8103606151058825	-0.2996997361271404	0.0	0.7410657897812718	-0.35279078904582184	0.0	0.7286147855770944	-0.4295093138361624	0.0	0.7564792956610259	-0.5010262237206986	0.0	0.7825830103972116	-0.3611776342270061	0.0	0.7817190779443313	-0.4455108579292522	0.0	0.8128329464627622	-0.5094486973789635	0.0
